<svg width="298" height="88" fill="none" xmlns="http://www.w3.org/2000/svg"><g clip-path="url(#juicz966ma)"><path d="M30.938 14.355a32.547 32.547 0 0120.565 7.822l-4.184 8.808a28.284 28.284 0 00-15.738-5.14c-8.826 0-16.276 5.863-17.823 16.972C12.302 53.176 17.6 58.29 25.824 58.303c5.639 0 12.13-2.195 18.164-5.797l2.623 9.688a40.476 40.476 0 01-22.296 7.612c-16.853 0-26.23-12.778-24.079-28.488a30.836 30.836 0 0110.242-19.326 30.7 30.7 0 0120.46-7.637zM74.192 29.67c11.633 0 17.876 8.02 15.908 21.363a32.72 32.72 0 01-.301 1.814H64.264a3.55 3.55 0 000 .526c.38 4.457 3.187 6.573 7.383 6.573a31.036 31.036 0 0011.62-2.984l1.81 7.888a28.583 28.583 0 01-16.25 5.114c-12.104 0-18.832-9.005-17.272-20.127a22.917 22.917 0 017.506-14.383 22.816 22.816 0 0115.13-5.783zm-8.88 16.131h13.116c0-3.865-1.312-6.31-5.39-6.31-3.699 0-6.361 2.471-7.725 6.31zm43.766 8.729c-.564 4.023.656 5.258 3.042 5.258a10.083 10.083 0 003.581-.828l2.387 8.203a26.522 26.522 0 01-10.859 2.63c-7.122 0-12.447-4.247-11.083-13.962l5.679-40.45h12.735l-5.482 39.149zm35.043-24.86c5.627 0 11.804 1.434 15.633 4.983l-5.167 7.033c-2.321-2.05-6.295-2.918-9.928-2.918-3.633 0-5.246.973-5.561 2.958-.21 1.314.459 1.932 4.905 3.09 7.135 1.695 15.568 3.798 14.073 13.066-1.495 9.268-10.899 12.042-18.781 12.042-6.977 0-13.653-2.3-16.84-6.323l5.246-6.876c2.243 2.985 6.938 3.944 10.912 3.944 3.974 0 6.636-1.183 6.951-3.47.223-1.775-1.312-2.117-5.167-3.168-9.732-2.459-15.135-4.418-13.876-12.45 1.429-9.097 9.508-11.976 17.613-11.976l-.013.066zm17.417 39.11l5.338-38.123h12.748l-5.351 38.123h-12.735zm20.486-48.154a7.764 7.764 0 01-2.67 4.62 7.727 7.727 0 01-5.016 1.796 6.724 6.724 0 01-5.304-2.309 6.757 6.757 0 01-1.568-5.58 7.748 7.748 0 012.669-4.556 7.713 7.713 0 014.964-1.78 6.726 6.726 0 015.278 2.279 6.763 6.763 0 011.607 5.53h.04zm23.895 9.044c12.958 0 20.381 9.505 18.729 20.864-1.522 10.608-10.558 19.39-23.148 19.39-13.116 0-20.342-9.518-18.689-20.863 1.587-10.99 10.701-19.403 23.108-19.39zm-10.557 20.864c-.722 5.403 1.823 8.794 6.452 8.781 5.246 0 9.364-4.154 10.217-10.254.734-5.074-1.456-8.794-6.387-8.781-5.351-.092-9.495 4.22-10.282 10.188v.066zm67.529-20.982h1.312l-2.991 11.608a4.974 4.974 0 00-.905 0 24.517 24.517 0 00-13.915 5.14l-3.147 22.48h-12.748l5.351-38.123h12.735l-.669 4.772a24.765 24.765 0 0115.029-5.89l-.052.013zm8.472 23.401a4.346 4.346 0 004.341-4.352 4.346 4.346 0 00-4.341-4.351 4.346 4.346 0 00-4.341 4.351 4.347 4.347 0 004.341 4.352z" fill="#18233F"/><path d="M286.236 52.953a4.347 4.347 0 004.341-4.352 4.346 4.346 0 00-4.341-4.351 4.346 4.346 0 00-4.341 4.351 4.346 4.346 0 004.341 4.352z" fill="#74BFB8"/><path d="M273.855 38.282a4.346 4.346 0 004.341-4.352 4.346 4.346 0 00-4.341-4.351 4.347 4.347 0 00-4.341 4.351 4.347 4.347 0 004.341 4.352z" fill="#18233F"/><path d="M288.728 38.282a4.347 4.347 0 004.341-4.352 4.347 4.347 0 00-4.341-4.351 4.346 4.346 0 00-4.341 4.351 4.346 4.346 0 004.341 4.352z" fill="#74BFB8"/><path d="M246.812 23.597a4.346 4.346 0 004.341-4.351 4.346 4.346 0 00-4.341-4.351 4.346 4.346 0 00-4.341 4.35 4.346 4.346 0 004.341 4.352zm14.741 0a4.346 4.346 0 004.341-4.351 4.346 4.346 0 00-4.341-4.351 4.347 4.347 0 00-4.341 4.35 4.346 4.346 0 004.341 4.352zm14.742 0a4.346 4.346 0 004.341-4.351 4.347 4.347 0 00-4.341-4.351 4.346 4.346 0 00-4.341 4.35 4.346 4.346 0 004.341 4.352z" fill="#18233F"/><path d="M291.167 23.597a4.346 4.346 0 004.341-4.351 4.346 4.346 0 00-4.341-4.351 4.347 4.347 0 00-4.341 4.35 4.346 4.346 0 004.341 4.352zM249.068 8.703a4.346 4.346 0 004.341-4.352A4.346 4.346 0 00249.068 0a4.346 4.346 0 00-4.341 4.351 4.346 4.346 0 004.341 4.352zm14.859 0a4.346 4.346 0 004.341-4.352A4.346 4.346 0 00263.927 0a4.346 4.346 0 00-4.341 4.351 4.346 4.346 0 004.341 4.352zm14.873 0a4.346 4.346 0 004.341-4.352A4.346 4.346 0 00278.8 0a4.346 4.346 0 00-4.341 4.351 4.346 4.346 0 004.341 4.352z" fill="#74BFB8"/><path d="M293.659 8.703A4.346 4.346 0 00298 4.35 4.346 4.346 0 00293.659 0a4.346 4.346 0 00-4.341 4.351 4.346 4.346 0 004.341 4.352z" fill="#DF7A43"/><path d="M127.281 77.838l-1.036 7.388h-2.347l1.036-7.388h-2.623l.275-1.932h7.607l-.262 1.932h-2.65zm11.555 4.272v.316h-4.472a.31.31 0 010 .105 1.16 1.16 0 00.824 1.107c.158.047.324.06.487.037a5.313 5.313 0 002.033-.513l.315 1.315a4.872 4.872 0 01-2.833.894 2.877 2.877 0 01-2.385-.998 2.891 2.891 0 01-.632-2.512 3.947 3.947 0 011.291-2.52 3.93 3.93 0 012.644-1.003c1.98.039 3.134 1.446 2.728 3.773zm-4.341-.893h2.308c0-.684-.223-1.105-.944-1.105a1.469 1.469 0 00-1.364 1.105zm15.095-1.972l-.642 1.393a3.485 3.485 0 00-1.692-.473 1.954 1.954 0 00-1.915 1.867c-.131.96.275 1.603 1.246 1.603a4.466 4.466 0 001.954-.552l.433 1.512a4.834 4.834 0 01-2.623.815 2.997 2.997 0 01-2.483-1.031 3.025 3.025 0 01-.665-2.61 3.949 3.949 0 011.331-2.439 3.926 3.926 0 012.604-.953c.89.013 1.751.318 2.452.868zm11.2 1.695l-.564 4.286h-2.229l.577-4.036c.092-.71-.249-.96-.748-.96a2.908 2.908 0 00-1.639.645l-.603 4.351h-2.23l1.312-9.32h2.216l-.472 3.391a3.93 3.93 0 012.4-.92 1.99 1.99 0 012.028 1.628c.058.311.042.632-.048.936zm11.515 0l-.603 4.273h-2.229l.577-4.036c.091-.723-.223-.96-.709-.96a3.075 3.075 0 00-1.678.658l-.604 4.338h-2.229l.931-6.652h2.23l-.105.723a3.928 3.928 0 012.387-.92 2.003 2.003 0 012.078 1.626 2.01 2.01 0 01-.046.95zm11.633 1.092a3.942 3.942 0 01-1.373 2.465 3.929 3.929 0 01-2.666.913 3.05 3.05 0 01-2.54-1.003 3.074 3.074 0 01-.726-2.638 3.95 3.95 0 011.365-2.47 3.928 3.928 0 012.662-.922 3.074 3.074 0 012.542 1.013 3.1 3.1 0 01.736 2.642zm-5.114 0c-.132.933.314 1.538 1.127 1.525a1.875 1.875 0 001.784-1.788c.131-.881-.249-1.538-1.115-1.538a1.89 1.89 0 00-1.796 1.801zm11.803.71c-.092.696.118.92.538.92a1.75 1.75 0 00.629-.145l.407 1.433a4.503 4.503 0 01-1.889.46c-1.246 0-2.177-.736-1.941-2.432l.997-7.072h2.23l-.971 6.836zm12.879-.71a3.946 3.946 0 01-1.373 2.465 3.93 3.93 0 01-2.666.913 3.063 3.063 0 01-2.534-1.01 3.078 3.078 0 01-.732-2.631 3.949 3.949 0 011.37-2.474 3.927 3.927 0 012.669-.918 3.08 3.08 0 013.207 2.251 3.1 3.1 0 01.059 1.404zm-5.115 0c-.118.933.328 1.538 1.128 1.525a1.86 1.86 0 001.784-1.788c.131-.881-.249-1.538-1.115-1.538a1.901 1.901 0 00-1.81 1.8h.013zm16.25 2.852c-.084.9-.517 1.73-1.207 2.31a3.419 3.419 0 01-2.479.793 5.971 5.971 0 01-3.344-1.026l.276-1.603c.85.504 1.807.8 2.793.867a1.612 1.612 0 001.744-1.485v-.42c-.6.458-1.33.716-2.085.735-1.705 0-2.767-1.512-2.492-3.47a3.477 3.477 0 011.015-2.209 3.459 3.459 0 012.212-.999 2.868 2.868 0 012.059.894l.091-.71h2.23l-.813 6.323zm-1.954-2.287l.262-1.84a1.952 1.952 0 00-1.312-.54c-.839 0-1.429.671-1.573 1.67-.145 1 .223 1.394.918 1.407a2.793 2.793 0 001.705-.697zm6.426 2.629l.931-6.652h2.23l-.945 6.652h-2.216zm3.58-8.413a1.312 1.312 0 01-1.311 1.104 1.18 1.18 0 01-1.207-1.315 1.31 1.31 0 011.312-1.104 1.173 1.173 0 01.902.382 1.182 1.182 0 01.304.933zm10.151 5.297v.316h-4.472v.105a1.161 1.161 0 00.825 1.107c.158.047.324.06.487.037a5.313 5.313 0 002.033-.513l.314 1.315a4.868 4.868 0 01-2.833.894 2.88 2.88 0 01-2.385-.998 2.897 2.897 0 01-.631-2.512 3.947 3.947 0 011.291-2.52 3.93 3.93 0 012.644-1.003c1.98.039 3.068 1.446 2.727 3.773zm-4.341-.893h2.309c0-.684-.223-1.105-.945-1.105a1.469 1.469 0 00-1.364 1.105zm14.558-1.959l-.905 1.222a2.711 2.711 0 00-1.731-.512c-.643 0-.918.17-.971.526-.052.355.079.328.853.539 1.246.289 2.728.657 2.466 2.274-.263 1.617-1.902 2.103-3.279 2.103a3.838 3.838 0 01-2.951-1.104l.918-1.196a2.424 2.424 0 001.915.696c.708 0 1.154-.197 1.206-.604.053-.408-.223-.368-.905-.552-1.691-.434-2.623-.776-2.426-2.17.249-1.59 1.666-2.103 3.082-2.103a4.059 4.059 0 012.728.88z" fill="#656567"/></g><defs><clipPath id="juicz966ma"><path fill="#fff" d="M0 0h298v88H0z"/></clipPath></defs></svg>